<svg width="28" height="28" viewBox="0 0 28 28" fill="none" xmlns="http://www.w3.org/2000/svg">
<path d="M20.3 17.325V6.41666C20.3 4.725 18.9583 3.38333 17.2667 3.38333H6.41666C4.725 3.38333 3.38333 4.725 3.38333 6.41666V17.325C3.38333 19.0167 4.725 20.3583 6.41666 20.3583H17.325C18.9583 20.3 20.3 18.9583 20.3 17.325ZM22.8667 8.75V18.1417C22.8667 20.7667 20.7083 22.925 18.0833 22.925H8.69166C8.34166 22.925 8.16666 23.3333 8.4 23.5667C8.98333 24.2083 9.8 24.6167 10.7917 24.6167H18.6083C21.9333 24.6167 24.6167 21.9333 24.6167 18.6083V10.7917C24.6167 9.85833 24.2083 8.98333 23.5667 8.4C23.275 8.16666 22.8667 8.4 22.8667 8.75Z" fill="white"/>
</svg>
